<?xml version="1.0" encoding="UTF-8"?>
<svg id="Layer_1" xmlns="http://www.w3.org/2000/svg" version="1.1" viewBox="0 0 541 84">
  <!-- Generator: Adobe Illustrator 29.2.1, SVG Export Plug-In . SVG Version: 2.1.0 Build 116)  -->
  <defs>
    <style>
      .st0 {
        fill: #3d4457;
      }

      .st1 {
        fill: #97d5c9;
      }
    </style>
  </defs>
  <g>
    <path class="st0" d="M82.9,53v-25.2c0-5.7,2.7-8.4,8.4-8.4h13c5.7,0,8.4,2.7,8.4,8.4v5.3h-5.8v-5.2c0-2.4-.9-3.3-3.3-3.3h-11.7c-2.3,0-3.2.9-3.2,3.3v24.8c0,2.4.9,3.3,3.2,3.3h11.7c2.4,0,3.3-.9,3.3-3.3v-5.2h5.8v5.3c0,5.5-2.7,8.4-8.4,8.4h-13c-5.7,0-8.4-2.9-8.4-8.4v.2Z"/>
    <path class="st0" d="M120.7,29h5.5v4.8c2.6-2.6,5.2-4.8,10-4.8h2.4v5.2h-2.9c-3.8,0-6.5,1.4-9.5,3.2v24h-5.5s0-32.4,0-32.4Z"/>
    <path class="st0" d="M152.8,61.4l-11.6-32.4h5.8l8.6,26.1,8.9-26.1h5.6l-15.4,42h-5.2l3.4-9.6h-.1Z"/>
    <path class="st0" d="M175.6,29h5.5v4.6c2.8-2.8,5.2-4.8,11.4-4.8s9.5,2.6,9.5,8.2v16.4c0,5.6-2.6,8.2-9.5,8.2s-8.6-2-11.4-4.8v14.2h-5.5V29h0ZM191.8,56.7c3.7,0,4.6-.9,4.6-3.4v-16.1c0-2.5-1-3.4-4.6-3.4s-7.6,1.1-10.8,3.2v16.4c3.2,2.2,5.6,3.2,10.8,3.2h0Z"/>
    <path class="st0" d="M211.4,53.4v-19.7h-4.8v-4.6h4.9v-7.8h5.4v7.8h7.7v4.6h-7.7v19.8c0,2.3.9,3.2,3.2,3.2h4.4v4.7h-5.2c-5.5,0-8-2.6-8-8h.1Z"/>
    <path class="st0" d="M229.7,53.4v-16.3c0-5.5,2.6-8,8-8h9.8c5.5,0,8,2.6,8,8v16.3c0,5.5-2.6,8-8,8h-9.8c-5.5,0-8-2.6-8-8ZM238.4,56.5h8.5c2.3,0,3.2-1,3.2-3.2v-16.2c0-2.3-.9-3.2-3.2-3.2h-8.5c-2.3,0-3.2,1-3.2,3.2v16.2c0,2.3,1,3.2,3.2,3.2Z"/>
    <path class="st0" d="M263,53.4v-16.3c0-5.5,2.6-8,8-8h8.9c5.5,0,8,2.6,8,8v2.8h-5.5v-2.8c0-2.3-.9-3.2-3.2-3.2h-7.6c-2.3,0-3.2,1-3.2,3.2v16.2c0,2.3,1,3.2,3.2,3.2h7.6c2.3,0,3.2-1,3.2-3.2v-2.8h5.5v2.8c0,5.5-2.6,8-8,8h-8.9c-5.5,0-8-2.6-8-8h0Z"/>
    <path class="st0" d="M294.2,52.2c0-6.8,2.8-8.8,8.2-9.4,2.9-.3,7.2-.7,12.1-.9v-4.9c0-2.3-.9-3.2-3.2-3.2h-7.3c-2.3,0-3.2.9-3.2,3.2v1.2h-5.5v-1.1c0-5.5,2.6-8,8-8h8.6c5.5,0,8,2.6,8,8v24.4h-5.5v-4.6c-2.5,3.1-5.2,4.9-11.1,4.9s-9.2-2.8-9.2-9.5h.1ZM304,56.9c4.9,0,7.3-1.3,10.5-3.5v-8l-11.3,1.5c-2.5.4-3.5,1.1-3.5,4.9s.9,5,4.3,5h0Z"/>
    <path class="st0" d="M328.2,53.6v-24.6h5.5v24.4c0,2.4.9,3.3,4.2,3.3,4.7,0,7.2-1.1,10.4-3.2v-24.5h5.5v32.4h-5.5v-4.5c-2.8,2.8-5.2,4.8-11,4.8s-9.1-2.6-9.1-8.1h0Z"/>
    <path class="st0" d="M361.1,52.6v-1.3h5.3v1.4c0,3.1,1,4.1,3.2,4.1h7.9c2.3,0,3.2-1,3.2-4.7s-.8-4-3.1-4.3l-9.2-1.5c-4.9-.8-7-2.6-7-8.1s2.6-9.2,8-9.2h7.9c5.5,0,8,2.6,8,8.5v1.1h-5.3v-1.3c0-2.7-.9-3.7-3.2-3.7h-6.7c-2.3,0-3.2,1-3.2,4.2s.8,3.5,3.1,3.8l9.2,1.5c4.9.8,7,2.6,7,8.6s-2.6,9.7-8,9.7h-9.1c-5.5,0-8-2.6-8-8.8h0Z"/>
    <path class="st0" d="M392.9,53.4v-16.3c0-5.5,2.6-8,8-8h9.4c5.5,0,8,2.6,8,8v9.5h-20v7c0,2.3,1,3.2,3.2,3.2h8.1c2.3,0,3.2-1,3.2-3.2v-2.4h5.5v2.2c0,5.5-2.6,8-8,8h-9.4c-5.5,0-8-2.6-8-8h0ZM413,42.4v-5.6c0-2.3-.9-3.2-3.2-3.2h-8.1c-2.3,0-3.2,1-3.2,3.2v5.6h14.6,0Z"/>
    <path class="st0" d="M422.6,29h5.8l6.1,26.6,7.3-26.6h5.3l7.3,26.6,6.1-26.6h5.5l-8.7,32.4h-5.9l-7-25.6-7,25.6h-5.9l-8.9-32.4h0Z"/>
    <path class="st0" d="M469.7,52.2c0-6.8,2.8-8.8,8.2-9.4,2.9-.3,7.2-.7,12.1-.9v-4.9c0-2.3-.9-3.2-3.2-3.2h-7.3c-2.3,0-3.2.9-3.2,3.2v1.2h-5.5v-1.1c0-5.5,2.6-8,8-8h8.6c5.5,0,8,2.6,8,8v24.4h-5.5v-4.6c-2.5,3.1-5.2,4.9-11.1,4.9s-9.2-2.8-9.2-9.5h.1ZM479.5,56.9c4.9,0,7.3-1.3,10.5-3.5v-8l-11.3,1.5c-2.5.4-3.5,1.1-3.5,4.9s.9,5,4.3,5h0Z"/>
    <path class="st0" d="M512,61.4l-11.6-32.4h5.8l8.6,26.1,8.9-26.1h5.6l-15.4,42h-5.2l3.4-9.6h0Z"/>
  </g>
  <g>
    <g>
      <path class="st0" d="M10,44.1c0,16.8,13.7,30.5,30.5,30.5s30.5-13.7,30.5-30.5-13.7-30.5-30.5-30.5-30.5,13.7-30.5,30.5ZM64.3,44.1c0,13-10.5,23.5-23.5,23.5s-23.5-10.5-23.5-23.5,10.5-23.5,23.5-23.5,23.5,10.5,23.5,23.5Z"/>
      <path class="st1" d="M37.4,39.2c0,1.1.6,1.8,1.8,2.3v-4.5h-.2c-1.1.6-1.6,1.3-1.6,2.2Z"/>
      <path class="st1" d="M43.1,51c.2,0,.4-.2.6-.3,1-.6,1.6-1.5,1.6-2.7s-.7-2.1-2.2-2.5v5.5Z"/>
      <path class="st1" d="M17.3,44.1c0,13,10.5,23.5,23.5,23.5s23.5-10.5,23.5-23.5-10.5-23.5-23.5-23.5-23.5,10.5-23.5,23.5Z"/>
    </g>
    <path class="st0" d="M50.6,34.9c0-.4-.4-.8-.8-.8-8-.5-14.4,1.9-17.1,6.5-.9,1.5-1.4,3.3-1.3,5.1,0,1.7.5,3.4,1.4,5l-2,2c-.3.3-.3.9,0,1.2s.9.3,1.2,0h0l2-2c1.7.9,3.4,1.4,5,1.4h.3c1.7,0,3.4-.5,4.8-1.3,4.5-2.7,6.9-9.1,6.5-17.1ZM43.2,50.6c-2.4,1.4-5.2,1.5-8.1,0l9.3-9.3c.3-.3.3-.9,0-1.2-.3-.3-.9-.3-1.2,0l-9.3,9.3c-1.4-2.8-1.4-5.7,0-8.1,2.3-3.8,7.8-5.9,14.8-5.7.3,7-1.8,12.5-5.7,14.8l.2.2Z"/>
  </g>
</svg>